<?xml version="1.0" standalone="no"?>
<!DOCTYPE svg PUBLIC "-//W3C//DTD SVG 20010904//EN"
 "http://www.w3.org/TR/2001/REC-SVG-20010904/DTD/svg10.dtd">
<svg version="1.0" xmlns="http://www.w3.org/2000/svg"
 width="200.000000pt" height="200.000000pt" viewBox="0 0 200.000000 200.000000"
 preserveAspectRatio="xMidYMid meet">

<g transform="translate(0.000000,200.000000) scale(0.100000,-0.100000)"
fill="#000000" stroke="none">
<path d="M958 1319 c-10 -10 -24 -16 -31 -13 -16 6 -51 -31 -43 -45 4 -6 -2
-19 -14 -31 -26 -26 -26 -61 0 -83 12 -10 18 -22 14 -28 -9 -16 26 -49 53 -49
13 0 26 -7 29 -15 9 -23 44 -19 44 5 0 21 33 29 45 10 11 -17 35 -11 35 9 0
25 -18 37 -33 22 -14 -14 -47 -15 -47 -1 0 6 -9 10 -20 10 -12 0 -32 11 -45
25 -45 44 -25 117 35 130 17 4 30 11 30 16 0 12 37 12 45 -1 11 -17 35 -11 35
9 0 25 -18 37 -33 22 -18 -18 -47 -13 -47 9 0 25 -29 25 -52 -1z"/>
<path d="M1098 1260 c-14 -15 -30 -20 -71 -20 -67 0 -96 -24 -81 -68 9 -25 14
-27 69 -30 49 -2 64 -8 84 -28 21 -24 25 -24 39 -10 24 24 5 35 -68 42 -91 8
-107 12 -114 29 -10 27 30 55 82 56 69 2 107 12 107 29 0 23 -28 23 -47 0z"/>
<path d="M1055 1203 c-80 -5 -97 -23 -21 -23 31 0 66 -4 76 -10 13 -7 21 -6
30 5 13 16 5 36 -13 33 -7 -1 -39 -3 -72 -5z"/>
<path d="M1220 910 c0 -40 4 -70 10 -70 6 0 10 7 10 15 0 8 4 15 9 15 5 0 14
-7 21 -15 7 -8 19 -15 28 -15 9 0 5 7 -12 21 l-27 21 22 24 c30 32 16 44 -16
14 l-25 -23 0 41 c0 23 -4 42 -10 42 -6 0 -10 -30 -10 -70z"/>
<path d="M500 868 c0 -39 4 -68 10 -68 6 0 10 9 10 20 0 14 7 20 23 20 30 0
47 18 47 51 0 34 -18 49 -58 46 l-32 -2 0 -67z m68 29 c5 -27 -17 -50 -34 -36
-15 12 -19 41 -7 53 12 12 38 1 41 -17z"/>
<path d="M622 927 c-16 -21 -20 -41 -11 -64 7 -19 16 -23 49 -23 l40 0 0 48
c0 48 0 49 -34 50 -19 1 -38 -4 -44 -11z m56 -30 c5 -23 -16 -47 -34 -40 -14
5 -19 44 -7 57 12 12 38 1 41 -17z"/>
<path d="M720 888 c0 -37 4 -48 16 -48 11 0 15 8 14 28 -3 44 -1 52 15 52 11
0 15 -11 15 -40 0 -29 4 -40 15 -40 11 0 15 11 15 40 0 29 4 40 15 40 11 0 15
-11 15 -40 0 -29 4 -40 15 -40 17 0 21 51 5 80 -8 14 -22 18 -75 17 l-65 0 0
-49z"/>
<path d="M892 893 c3 -48 3 -48 41 -51 l37 -3 0 50 c0 28 -4 51 -10 51 -5 0
-10 -18 -10 -39 0 -24 -5 -41 -14 -44 -20 -8 -26 2 -26 45 0 21 -5 38 -11 38
-6 0 -9 -19 -7 -47z"/>
<path d="M1000 888 c0 -57 17 -65 22 -11 2 27 8 39 21 41 14 3 17 -4 17 -37 0
-30 4 -41 15 -41 17 0 20 36 5 74 -8 22 -15 26 -45 24 -35 -3 -35 -3 -35 -50z"/>
<path d="M1115 920 c-24 -26 -13 -68 20 -76 13 -3 29 -3 34 1 16 9 14 -10 -2
-23 -7 -6 -24 -8 -37 -5 -15 4 -21 2 -17 -4 11 -18 45 -21 66 -6 17 11 21 25
21 72 l0 58 -34 1 c-22 1 -40 -5 -51 -18z m59 -15 c8 -22 -4 -45 -24 -45 -20
0 -32 23 -24 45 4 8 14 15 24 15 10 0 20 -7 24 -15z"/>
<path d="M1326 921 c-19 -21 -21 -52 -4 -69 7 -7 29 -12 51 -12 l38 0 -3 46
c-3 44 -5 47 -34 50 -21 2 -37 -3 -48 -15z m52 -32 c2 -16 -3 -29 -12 -32 -20
-8 -39 18 -31 43 9 29 39 21 43 -11z"/>
<path d="M1443 934 c-23 -10 -14 -44 13 -54 33 -13 21 -32 -14 -24 -21 5 -24
4 -16 -5 6 -7 24 -11 40 -9 38 4 44 34 10 49 -33 16 -34 33 -1 26 16 -3 24 0
22 7 -4 12 -35 18 -54 10z"/>
</g>
</svg>
